PathFileType	4	(X/Y/Z)	RBDS018\RBDS018runT35.trc
DataRate	CameraRate	NumFrames	NumMarkers	Units	OrigDataRate	OrigDataStartFrame	OrigNumFrames
150.000000	150.000000	6	33	mm	150.000000	2812	4500
Frame#	Time	L.ASIS			L.Heel.Bottom			L.Heel.Lateral			L.Heel.Top			L.Iliac.Crest			L.MT1			L.MT5			L.PSIS			L.Shank.Bottom.Lateral			L.Shank.Bottom.Medial			L.Shank.Top.Lateral			L.Shank.Top.Medial			L.Thigh.Bottom.Lateral			L.Thigh.Bottom.Medial			L.Thigh.Top.Lateral			L.Thigh.Top.Medial			R.ASIS			R.ASY			R.Heel.Bottom			R.Heel.Lateral			R.Heel.Top			R.Iliac.Crest			R.MT1			R.MT5			R.PSIS			R.Shank.Bottom.Lateral			R.Shank.Bottom.Medial			R.Shank.Top.Lateral			R.Shank.Top.Medial			R.Thigh.Bottom.Lateral			R.Thigh.Bottom.Medial			R.Thigh.Top.Lateral			R.Thigh.Top.Medial			
		X1	Y1	Z1	X2	Y2	Z2	X3	Y3	Z3	X4	Y4	Z4	X5	Y5	Z5	X6	Y6	Z6	X7	Y7	Z7	X8	Y8	Z8	X9	Y9	Z9	X10	Y10	Z10	X11	Y11	Z11	X12	Y12	Z12	X13	Y13	Z13	X14	Y14	Z14	X15	Y15	Z15	X16	Y16	Z16	X17	Y17	Z17	X18	Y18	Z18	X19	Y19	Z19	X20	Y20	Z20	X21	Y21	Z21	X22	Y22	Z22	X23	Y23	Z23	X24	Y24	Z24	X25	Y25	Z25	X26	Y26	Z26	X27	Y27	Z27	X28	Y28	Z28	X29	Y29	Z29	X30	Y30	Z30	X31	Y31	Z31	X32	Y32	Z32	X33	Y33	Z33	

2813	18.74666666666667	2071.074373243491	1036.367160751285	918.6265386403618	2054.230310821327	49.84107040773719	1020.158200671241	2083.154569943486	46.47495971194649	971.5999171992516	2068.498727545835	96.03413557747773	1005.853584261153	1992.739804532405	1103.647198184429	880.0091073536169	2279.444841221209	50.6020461986457	1054.169352917023	2245.891259719608	37.36115284011766	943.9938424914185	1903.240109720956	1045.496356680058	1000.751829188051	2121.871815135768	191.4091183633478	927.8389946668186	2091.368932654937	200.5375173349502	967.452162778789	2117.092823045692	268.3224759155955	902.9175094669179	2087.466560210363	282.0365130355097	944.490375698015	2129.738289194846	643.3464146603359	852.4075373099892	2074.981663942858	622.3335919690051	895.3826982705564	2081.011384179916	740.5355287860697	836.7278598785542	2028.042935247028	720.0171870599818	876.4904204439409	2104.04886743543	1019.711328812322	1139.483093916529	1514.109569995671	393.4054751747826	1039.644423636523	1512.35262475926	596.1634213504157	1042.067224570303	1517.101307220137	570.0929727191685	1081.035520737193	1556.184938728151	571.4969220667107	1045.689177217421	2052.164293699106	1100.737998463501	1176.151409286965	1468.975477648308	381.3864407321107	985.5831256957006	1463.28874988287	402.017378928382	1095.525831396392	1923.714173680718	1049.170746414589	1110.41469668051	1651.191391691489	506.6655464298776	1112.883608510079	1653.384720930608	553.336323232287	1083.268212953075	1730.816900505566	514.8537641325773	1128.825827061009	1731.553863823135	559.8014703561736	1099.664427518577	1992.325974462013	588.8169502177288	1156.118447306035	1936.073941655058	603.4207152097475	1112.34289131377	1994.39794517597	695.3123995777914	1186.699344038137	1938.244543475203	707.4697619917257	1149.232612762257	
2814	18.75333333333333	2069.329129808695	1030.536502556477	918.6480385502567	2030.755071192367	46.2243601027785	1022.080253407358	2059.77570489612	45.08484874022398	973.5230484127818	2045.018084412964	93.06488693962507	1009.859355414864	1990.117785724181	1096.15477841543	880.4931932447778	2256.350236849654	46.52746689491595	1057.249018202082	2222.965619981502	37.67962411053131	945.7755706790707	1901.669703977824	1037.95268098655	1002.45113322505	2105.745321980626	187.5270950932192	929.9512951551339	2073.933331000652	198.4205224592505	968.0197422824604	2104.652943505843	264.2180857767955	903.5188691631464	2073.947575669471	279.6907696382073	943.6351650189046	2124.798946007201	636.3912512270889	851.980428167295	2070.626558632268	616.0802301321271	896.0987505765401	2076.285198033981	733.6702770955353	836.1770826988279	2023.810945202588	713.7489288005252	876.9641604840708	2103.343317722427	1012.12684701012	1139.473298729418	1525.507776635471	399.4302146435234	1044.569619140315	1528.383263028172	602.2081303193426	1041.884681113482	1532.695947085986	577.0596936089215	1081.433254577627	1571.577802636127	576.6534715972288	1045.600908914902	2051.189448194917	1091.597928646158	1177.930027318776	1479.493672325308	387.0684881867149	991.2330136419084	1475.448713518493	410.7195416181502	1100.660722361699	1922.261529591012	1039.76735830139	1111.784601253707	1665.092540049742	509.6205112446017	1114.741218606043	1668.822755388112	555.668718849226	1084.289606273591	1745.00399233395	515.2058642515738	1130.246080176877	1747.208604454581	559.5744046828892	1100.381296985478	2001.088179646606	581.2484926229846	1157.442338489013	1944.407119564181	594.1461209610464	1113.759521908139	2000.287351186176	687.8688692235745	1187.773582130156	1943.78936782869	698.3591634709904	1150.376272472652	
2815	18.76	2067.504289519045	1024.43850196882	918.6601145995363	2006.935475872785	43.02231613962285	1024.032026834023	2036.029267020716	44.25810923703311	975.4741448781241	2021.039735336545	90.52195498838466	1013.9120808974	1987.640386343585	1088.368759824378	880.8414550236768	2232.865756309622	43.53206832282243	1060.025669515858	2199.699996374232	38.53050595574772	947.4714339965299	1899.916083197043	1030.981054812159	1003.895129557227	2088.849139458189	184.1956437651858	932.1838472084734	2055.937284706678	196.8469810428607	968.8341796759778	2091.375644723723	260.5257427688587	904.3327864755744	2059.812712027228	277.7380138844007	943.1259605050037	2119.020361728739	629.4706224004685	851.6626957245629	2065.450690056751	609.9766214880045	896.9836732541294	2070.882577665538	726.9054133339857	835.7435791694819	2018.941919942311	707.7095656858349	877.6452078780598	2102.410405668191	1004.428987440405	1139.449730978675	1538.071257741213	404.2352822748863	1049.336125381293	1544.566895086117	606.8715674138502	1041.823582922198	1548.648641898231	582.6163590120207	1081.880186776037	1587.224638627	580.6416361225969	1045.593252076686	2049.950985605142	1082.4605392461	1179.618303707391	1491.197698000142	391.4201448223531	996.760625732013	1488.832845527676	417.8397946069039	1105.652921528676	1920.62009789402	1030.990357752502	1112.846377532411	1679.626086323394	511.9019635537551	1116.639544489026	1684.754693486529	557.2246853706446	1085.228854129431	1759.743084131681	515.1481644365886	1131.69782522701	1763.268797906291	558.8303904753622	1101.034324707131	2010.307007723699	574.0669877287547	1159.198713352079	1952.983920611158	585.0338106046763	1115.973270285654	2006.583164645464	680.7636432186856	1189.113409041015	1949.596684378168	689.4026765838855	1152.073267130871	
2816	18.76666666666667	2065.574578708277	1018.19422413414	918.6249616036928	1982.985849142465	40.34603299872986	1025.969294402165	2012.115689411375	43.9187501556506	977.4094312121358	1996.837984529233	88.46286332820871	1017.834958291984	1985.303083449979	1080.446074921189	881.0593552778157	2209.206269442208	41.48886954601264	1062.416810329858	2176.242778399367	39.65217725910015	949.0343362324325	1897.968602088617	1024.712897002065	1005.050042828944	2071.184759180731	181.4161823217539	934.4408348553969	2037.499898655261	195.7805127719016	969.9095204176933	2077.185939774573	257.2670119744661	905.3509498259867	2045.104011567263	276.1602998004349	943.0578584489981	2112.443314538373	622.7455980677682	851.4711947537634	2059.470195678043	604.1463440001783	897.9934194673272	2064.854911394265	720.4105143075107	835.4639976191254	2013.460226723089	702.0393779079265	878.5127606303517	2101.234753675737	996.7834280166757	1139.431783791128	1551.654900004561	407.7784336655486	1053.823918925426	1560.744001500869	610.1950356828655	1042.035832278107	1564.808238304998	586.750926692855	1082.524324102016	1602.994218132246	583.4934281143413	1045.800173469626	2048.398378375567	1073.574150627997	1181.186747547536	1503.94696764518	394.4477017287414	1002.048689988081	1503.269404852932	423.2647860360908	1110.420674927947	1918.789051471188	1023.030007514177	1113.577041002618	1694.73010540248	513.4944837061059	1118.581522762481	1701.0872158716	558.0430886744836	1086.154725361698	1774.995167532785	514.7073990279681	1133.193800105341	1779.667760823905	557.6485218480599	1101.68702932894	2020.064004428455	567.4017900353235	1161.366113243098	1961.913828925518	576.1963823245984	1118.944950121351	2013.338421897001	674.1129967752662	1190.710300709399	1955.741349248668	680.7019831549976	1154.308041506432	
2817	18.77333333333333	2063.515386817479	1011.948687310643	918.5071340288068	1959.061375387683	38.26713310375541	1027.814974709717	1988.184900636973	43.96310660964346	979.2519522354048	1972.630911221332	86.91382011024265	1021.432605467549	1983.079514110367	1072.587132579789	881.1625077352162	2185.52188221541	40.22548244722916	1064.37232540616	2152.698676035441	40.81263943131713	950.4144284106244	1895.835396540969	1019.241111450682	1005.909819530686	2052.780759685551	179.1603688866481	936.5873501959857	2018.716312800148	195.159609713304	971.1770691022883	2062.062068866899	254.4363492169853	906.5004178832964	2029.861704178931	274.919959004339	943.4177550899872	2105.145515041011	616.3551345373779	851.3935515414851	2052.735871277763	598.6881478498551	899.0560397017852	2058.283500095103	714.3298491658988	835.3439515602329	2007.416797117857	696.8472171331397	879.5129434122067	2099.811714177049	989.3721236691674	1139.437457843813	1566.112253934752	410.0224262413512	1057.933165594098	1576.747189887006	612.2155171437988	1042.64036274604	1581.006655637263	589.4569495934876	1083.487188170149	1618.743920934376	585.2404765335743	1046.327913621295	2046.510798655446	1065.193954245579	1182.608924393733	1517.60808160506	396.1457604555429	1006.99568811611	1518.581087664851	426.9003134365893	1114.89625112139	1916.777489932583	1016.023631777937	1113.986725746596	1710.320656951439	514.3829069733972	1120.564457452039	1717.703495608354	558.1700746910749	1087.139551914449	1790.695385063607	513.913900552972	1134.748044859244	1796.314545762642	556.1179479452655	1102.409979005087	2030.407222435088	561.4057444989984	1163.899846426881	1971.299763463714	567.7885394488321	1122.575877215376	2020.573106047212	668.0504837236482	1192.547610570663	1962.285075534614	672.3893652559166	1157.030403517387	
2818	18.78	2061.310827828489	1005.861431982363	918.2831350487016	1935.256811158364	36.8134165970291	1029.477446930016	1964.333484559766	44.27590090972161	980.9090102971052	1948.570162628627	85.87001949104764	1024.521750512989	1980.931716285264	1065.024195395915	881.1743920729375	2161.898703998233	39.55232710877219	1065.87419758402	2129.130775824885	41.83206034702854	951.5656324792994	1893.54350684751	1014.613736956701	1006.497748426962	2033.697529155894	177.3786346893868	938.4737619596129	1999.655610836241	194.9091960995804	972.5025508983286	2046.040449177214	252.0059109382032	907.6606547183823	2014.122419407029	273.9671754523774	944.0949440346999	2097.224195317017	610.40654273164	851.3909302307011	2045.31670056166	593.6726939389779	900.0793695586312	2051.266273959055	708.7738566233077	835.3608220866145	2000.878030040711	692.2075591491703	880.5669460545778	2098.149427958791	982.3835013892736	1139.480351855968	1581.304249677563	410.9374568125685	1061.590883703375	1592.40433121139	612.960093941389	1043.711860835263	1597.062628266424	590.7318264116241	1084.848476678586	1634.320518289992	585.9104157545991	1047.245712255214	2044.300658567263	1057.560802324237	1183.863867545836	1532.063353816123	396.4956004436527	1011.520382951818	1534.59428118099	428.6766057951195	1119.026756906259	1914.605777451109	1010.050318359345	1114.117103806267	1726.289464277837	514.5553988214123	1122.580983011193	1734.462587703554	557.657853663888	1088.254644673287	1806.750044538708	512.8023037493215	1136.375388212565	1813.091347391299	554.3346496932782	1103.276989761226	2041.343539103175	556.2480921033015	1166.731944170968	1981.224365369706	560.0008377961012	1126.713637482898	2028.269977127801	662.7205857230672	1194.599032905959	1969.267541081486	664.6221964259453	1160.157675525023	
